
<svg width="150px" height="40px" viewBox="0 0 150 40" version="1.1" xmlns="http://www.w3.org/2000/svg" xmlns:xlink="http://www.w3.org/1999/xlink">
    <!-- Generator: Sketch 41.2 (35397) - http://www.bohemiancoding.com/sketch -->
    <desc>Created with Sketch.</desc>
    <defs>
        <polygon id="path-1" points="33.3095204 0.37971831 7.26524925e-05 0.37971831 7.26524925e-05 38.5615775 33.3095204 38.5615775 33.3095204 0.37971831"></polygon>
        <polygon id="path-3" points="0.450174419 27.6056338 21.249593 27.6056338 21.249593 0.026028169 0.450174419 0.026028169 0.450174419 27.6056338"></polygon>
        <polygon id="path-5" points="0.492732558 27.6056338 21.2921512 27.6056338 21.2921512 0.026028169 0.492732558 0.026028169 0.492732558 27.6056338"></polygon>
    </defs>
    <g id="Page-1" stroke="none" stroke-width="1" fill="none" fill-rule="evenodd">
        <g id="Group-3" transform="translate(0.000000, 0.183775)">
            <mask id="mask-2" fill="white">
                <use xlink:href="#path-1"></use>
            </mask>
            <g id="Clip-2"></g>
            <path d="M16.6552326,20.592 C14.4244186,20.592 12.4511628,18.6314366 12.4511628,16.4173521 C12.4511628,14.3559437 14.4244186,12.443831 16.6552326,12.443831 C18.8872093,12.443831 20.8587209,14.3052394 20.8587209,16.4173521 C20.8587209,18.6821408 18.9906977,20.592 16.6552326,20.592 M28.430814,5.10805634 C21.9273256,-1.19673239 11.3831395,-1.19616901 4.87790698,5.10692958 C-1.625,11.4094648 -1.62674419,21.6286197 4.87790698,27.9311549 C8.11976744,31.072 16.6151163,38.5615775 16.6151163,38.5615775 C16.6151163,38.5615775 25.1697674,31.0917183 28.430814,27.9322817 C34.9348837,21.6286197 34.9366279,11.4094648 28.430814,5.10805634" id="Fill-1" fill="#60CDA2" mask="url(#mask-2)"></path>
        </g>
        <path d="M45.9674419,8.63667606 L45.9674419,8.02484507 C45.9953488,7.07329577 46.2622093,6.33188732 46.7674419,5.8011831 C47.2726744,5.27160563 47.9465116,5.00569014 48.7883721,5.00569014 C49.6023256,5.00569014 50.2680233,5.28512676 50.7877907,5.84230986 C51.3081395,6.39949296 51.5668605,7.12738028 51.5668605,8.02484507 L51.5668605,8.63667606 L51.5668605,11.8856901 L52.1994186,11.8856901 L52.7883721,11.8856901 C53.630814,11.9127324 54.3052326,12.1442817 54.8087209,12.5792113 C55.3139535,13.0147042 55.5668605,13.599493 55.5668605,14.3335775 C55.5668605,15.0411831 55.3069767,15.6254085 54.7883721,16.0873803 C54.2680233,16.5499155 53.602907,16.7814648 52.7883721,16.7814648 L52.1994186,16.7814648 L51.5668605,16.7814648 L51.5668605,27.8378028 L51.5668605,28.4496338 C51.5389535,29.3747042 51.2738372,30.1087887 50.7668605,30.6530141 C50.2633721,31.1972394 49.5889535,31.4687887 48.7465116,31.4687887 C47.9325581,31.4687887 47.2651163,31.1893521 46.7476744,30.6327324 C46.2267442,30.0755493 45.9674419,29.3470986 45.9674419,28.4496338 L45.9674419,27.8378028 L45.9674419,16.7814648 L45.672093,16.7814648 C44.7744186,16.7814648 44.0662791,16.564 43.5465116,16.128507 C43.027907,15.6941408 42.7680233,15.0947042 42.7680233,14.3335775 C42.7680233,12.6473803 43.8337209,11.8310423 45.9674419,11.8856901 L45.9674419,8.63667606 Z" id="Fill-4" fill="#FEFEFE"></path>
        <path d="M65.3743023,27.8378028 L65.3743023,28.4496338 C65.3463953,29.3747042 65.0818605,30.1087887 64.5743023,30.6530141 C64.0690698,31.1972394 63.4103488,31.4687887 62.5963953,31.4687887 C61.7539535,31.4687887 61.0731395,31.1893521 60.5545349,30.6327324 C60.0336047,30.0755493 59.7743023,29.3470986 59.7743023,28.4496338 L59.7743023,27.8378028 L59.7743023,15.2310423 L59.7743023,14.6192113 C59.8027907,13.6947042 60.0696512,12.9600563 60.5743023,12.415831 C61.0795349,11.872169 61.7405814,11.6000563 62.5539535,11.6000563 C63.3963953,11.6000563 64.0760465,11.879493 64.5952326,12.4366761 C65.115,12.9938592 65.3743023,13.7217465 65.3743023,14.6192113 L65.3743023,15.2310423 L65.3743023,27.8378028 Z" id="Fill-6" fill="#FEFEFE"></path>
        <g id="Group-10" transform="translate(70.348837, 11.451380)">
            <mask id="mask-4" fill="white">
                <use xlink:href="#path-3"></use>
            </mask>
            <g id="Clip-9"></g>
            <path d="M10.6391279,14.7127887 C11.2844767,14.7127887 11.8949419,14.5905352 12.4705233,14.3465915 C13.0443605,14.1020845 13.5519186,13.7753239 13.9873837,13.3668732 C14.4211047,12.9601127 14.7647093,12.483493 15.0170349,11.9387042 C15.2693605,11.3950423 15.3955233,10.8108169 15.3955233,10.1849014 C15.3955233,9.53250704 15.2693605,8.92067606 15.0170349,8.34940845 C14.7647093,7.77814085 14.4286628,7.288 14.0065698,6.88011268 C13.5862209,6.47222535 13.0879651,6.14602817 12.5129651,5.90095775 C11.9373837,5.65588732 11.3123837,5.53419718 10.6391279,5.53419718 C9.99261628,5.53419718 9.38273256,5.65588732 8.80715116,5.90095775 C8.23156977,6.14602817 7.73389535,6.47222535 7.31238372,6.88011268 C6.89261628,7.288 6.55540698,7.77138028 6.3025,8.32856338 C6.04959302,8.88630986 5.92459302,9.49025352 5.92459302,10.144338 C5.92459302,10.7702535 6.04959302,11.3612394 6.3025,11.9189859 C6.55540698,12.4767324 6.89261628,12.9601127 7.31238372,13.3668732 C7.73389535,13.7753239 8.23156977,14.1020845 8.80715116,14.3465915 C9.38273256,14.5905352 9.99261628,14.7127887 10.6391279,14.7127887 L10.6391279,14.7127887 Z M6.04959302,23.9803944 L6.04959302,24.591662 C6.02226744,25.5415211 5.76238372,26.2818028 5.27110465,26.8119437 C4.77924419,27.3403944 4.11122093,27.6057465 3.27052326,27.6057465 C2.42866279,27.6057465 1.74843023,27.3336338 1.22866279,26.7899718 C0.709476744,26.2457465 0.450174419,25.511662 0.450174419,24.5865915 L0.450174419,23.9747606 L0.450174419,3.65701408 C0.450174419,3.00461972 0.4775,2.51504225 0.53505814,2.18828169 C0.590290698,1.86208451 0.703081395,1.56349296 0.871686047,1.2908169 C1.32168605,0.529690141 2.0775,0.14884507 3.14377907,0.14884507 C4.46354651,0.14884507 5.34784884,0.801239437 5.79726744,2.10715493 C6.69494186,1.34659155 7.57982558,0.80856338 8.44959302,0.495323944 C9.31936047,0.183211268 10.3443605,0.026028169 11.5228488,0.026028169 C12.9257558,0.026028169 14.224593,0.277859155 15.4181977,0.780957746 C16.6106395,1.28461972 17.6344767,1.98433803 18.4914535,2.88180282 C19.3472674,3.77983099 20.0205233,4.84743662 20.5129651,6.08461972 C21.0036628,7.32292958 21.249593,8.66208451 21.249593,10.1026479 C21.249593,11.5449014 21.0036628,12.8772958 20.5129651,14.1020845 C20.0205233,15.3257465 19.3472674,16.3865915 18.4914535,17.283493 C17.6344767,18.1809577 16.6234302,18.8818028 15.4600581,19.3849014 C14.2937791,19.888 13.024593,20.139831 11.649593,20.139831 C10.555407,20.139831 9.5652907,19.9910986 8.68215116,19.6941972 C7.79726744,19.3967324 6.91994186,18.9110986 6.04959302,18.236169 L6.04959302,23.9803944 Z" id="Fill-8" fill="#FEFEFE" mask="url(#mask-4)"></path>
        </g>
        <g id="Group-13" transform="translate(94.767442, 11.451380)">
            <mask id="mask-6" fill="white">
                <use xlink:href="#path-5"></use>
            </mask>
            <g id="Clip-12"></g>
            <path d="M10.6822674,14.7127887 C11.3276163,14.7127887 11.9375,14.5905352 12.5130814,14.3465915 C13.0892442,14.1020845 13.5938953,13.7753239 14.0293605,13.3668732 C14.4636628,12.9601127 14.806686,12.483493 15.059593,11.9387042 C15.3125,11.3950423 15.4380814,10.8108169 15.4380814,10.1849014 C15.4380814,9.53250704 15.3125,8.92067606 15.059593,8.34940845 C14.806686,7.77814085 14.4706395,7.288 14.0502907,6.88011268 C13.6281977,6.47222535 13.1299419,6.14602817 12.5549419,5.90095775 C11.9805233,5.65588732 11.3555233,5.53419718 10.6822674,5.53419718 C10.0357558,5.53419718 9.42645349,5.65588732 8.8497093,5.90095775 C8.27412791,6.14602817 7.77645349,6.47222535 7.35552326,6.88011268 C6.93575581,7.288 6.59738372,7.77138028 6.34447674,8.32856338 C6.09331395,8.88630986 5.96656977,9.49025352 5.96656977,10.144338 C5.96656977,10.7702535 6.09331395,11.3612394 6.34447674,11.9189859 C6.59738372,12.4767324 6.93575581,12.9601127 7.35552326,13.3668732 C7.77645349,13.7753239 8.27412791,14.1020845 8.8497093,14.3465915 C9.42645349,14.5905352 10.0357558,14.7127887 10.6822674,14.7127887 L10.6822674,14.7127887 Z M6.09331395,23.9803944 L6.09331395,24.591662 C6.06424419,25.5415211 5.80436047,26.2818028 5.31482558,26.8119437 C4.82296512,27.3403944 4.15552326,27.6057465 3.31366279,27.6057465 C2.47180233,27.6057465 1.79215116,27.3336338 1.27180233,26.7899718 C0.752616279,26.2457465 0.492732558,25.511662 0.492732558,24.5865915 L0.492732558,23.9747606 L0.492732558,3.65701408 C0.492732558,3.00461972 0.52005814,2.51504225 0.577034884,2.18828169 C0.632848837,1.86208451 0.74622093,1.56349296 0.914244186,1.2908169 C1.36366279,0.529690141 2.12063953,0.14884507 3.18633721,0.14884507 C4.50668605,0.14884507 5.39040698,0.801239437 5.84040698,2.10715493 C6.73866279,1.34659155 7.62238372,0.80856338 8.49331395,0.495323944 C9.3619186,0.183211268 10.3875,0.026028169 11.5665698,0.026028169 C12.968314,0.026028169 14.2665698,0.277859155 15.4613372,0.780957746 C16.6526163,1.28461972 17.6770349,1.98433803 18.5334302,2.88180282 C19.3892442,3.77983099 20.0636628,4.84743662 20.5549419,6.08461972 C21.0462209,7.32292958 21.2921512,8.66208451 21.2921512,10.1026479 C21.2921512,11.5449014 21.0462209,12.8772958 20.5549419,14.1020845 C20.0636628,15.3257465 19.3892442,16.3865915 18.5334302,17.283493 C17.6770349,18.1809577 16.6665698,18.8818028 15.5020349,19.3849014 C14.3380814,19.888 13.0677326,20.139831 11.6921512,20.139831 C10.5973837,20.139831 9.60726744,19.9910986 8.72412791,19.6941972 C7.83982558,19.3967324 6.9619186,18.9110986 6.09331395,18.236169 L6.09331395,23.9803944 Z" id="Fill-11" fill="#FEFEFE" mask="url(#mask-6)"></path>
        </g>
        <path d="M125.405698,27.8378028 L125.405698,28.4496338 C125.377791,29.3747042 125.110349,30.1087887 124.605698,30.6530141 C124.100465,31.1972394 123.441163,31.4687887 122.627791,31.4687887 C121.785349,31.4687887 121.103953,31.1893521 120.585349,30.6327324 C120.065,30.0755493 119.805116,29.3470986 119.805116,28.4496338 L119.805116,27.8378028 L119.805116,15.2310423 L119.805116,14.6192113 C119.833605,13.6947042 120.099884,12.9600563 120.605698,12.415831 C121.11093,11.872169 121.769651,11.6000563 122.583605,11.6000563 C123.426628,11.6000563 124.107442,11.879493 124.626628,12.4366761 C125.145814,12.9938592 125.405698,13.7217465 125.405698,14.6192113 L125.405698,15.2310423 L125.405698,27.8378028 Z" id="Fill-14" fill="#FEFEFE"></path>
        <path d="M139.594244,26.164169 C140.239593,26.164169 140.850058,26.0419155 141.425058,25.7979718 C142.00064,25.5534648 142.498895,25.2267042 142.920988,24.8182535 C143.340756,24.411493 143.678547,23.9281127 143.930872,23.3703662 C144.18436,22.8126197 144.30936,22.2216338 144.30936,21.5957183 C144.30936,20.9416338 144.18436,20.3376901 143.930872,19.7799437 C143.678547,19.2227606 143.340756,18.7393803 142.920988,18.331493 C142.498895,17.9236056 142.00064,17.5974085 141.425058,17.352338 C140.850058,17.1072676 140.239593,16.9855775 139.594244,16.9855775 C138.920407,16.9855775 138.294826,17.1072676 137.720988,17.352338 C137.144244,17.5974085 136.645988,17.9236056 136.22564,18.331493 C135.804128,18.7393803 135.4675,19.2295211 135.215174,19.8007887 C134.962267,20.3720563 134.835523,20.9838873 134.835523,21.6362817 C134.835523,22.2621972 134.962267,22.8464225 135.215174,23.3900845 C135.4675,23.9348732 135.811105,24.411493 136.247733,24.8182535 C136.680872,25.2267042 137.186105,25.5534648 137.762849,25.7979718 C138.337849,26.0419155 138.948895,26.164169 139.594244,26.164169 M141.551221,31.1421972 C140.666919,31.4413521 139.677965,31.5912113 138.583198,31.5912113 C137.208779,31.5912113 135.93843,31.3393803 134.772151,30.8362817 C133.608779,30.3331831 132.598895,29.632338 131.741337,28.7348732 C130.885523,27.8379718 130.211686,26.7771268 129.72157,25.5534648 C129.229128,24.3286761 128.983779,22.9962817 128.983779,21.5540282 C128.983779,20.1134648 129.229128,18.7743099 129.72157,17.536 C130.211686,16.2988169 130.885523,15.2312113 131.741337,14.3331831 C132.598895,13.4357183 133.622151,12.736 134.814593,12.232338 C136.008198,11.7292394 137.305291,11.4774085 138.709942,11.4774085 C139.889012,11.4774085 140.912849,11.6345915 141.78436,11.9467042 C142.652384,12.2599437 143.537267,12.7979718 144.434942,13.5585352 C144.911686,12.2526197 145.79657,11.6002254 147.08843,11.6002254 C147.5925,11.6002254 148.049477,11.7021972 148.458198,11.9061408 C148.862267,12.1100845 149.164593,12.3883944 149.361105,12.7421972 C149.530291,13.0419155 149.6425,13.3540282 149.698314,13.6807887 C149.755291,14.0069859 149.782616,14.4830423 149.782616,15.1083944 L149.782616,35.4261408 L149.782616,36.0379718 C149.755291,36.9900845 149.48843,37.7309296 148.982616,38.2616338 C148.476802,38.7917746 147.803547,39.0571268 146.961686,39.0571268 C146.147151,39.0571268 145.480872,38.7776901 144.962267,38.220507 C144.4425,37.6627606 144.18436,36.9354366 144.18436,36.0379718 L144.18436,35.4261408 L144.18436,29.6734648 C143.312849,30.3534648 142.436105,30.8430423 141.551221,31.1421972" id="Fill-16" fill="#FEFEFE"></path>
        <path d="M122.583837,3.61825352 C123.51,3.61825352 124.296628,3.93149296 124.941977,4.55684507 C125.587907,5.18276056 125.910581,5.94332394 125.910581,6.84135211 C125.910581,7.73938028 125.580349,8.50726761 124.921047,9.14670423 C124.261744,9.78557746 123.455349,10.1050141 122.499535,10.1050141 C122.051279,10.1050141 121.622791,10.0171268 121.216977,9.83966197 C120.809419,9.66332394 120.451279,9.43177465 120.142558,9.14670423 C119.833837,8.86107042 119.589651,8.52811268 119.40593,8.14670423 C119.223372,7.76642254 119.132093,7.35853521 119.132093,6.92304225 C119.132093,5.97149296 119.462326,5.18276056 120.122791,4.55684507 C120.780349,3.93149296 121.60186,3.61825352 122.583837,3.61825352" id="Fill-19" fill="#FEFEFE"></path>
        <path d="M62.5542442,3.61825352 C63.4809884,3.61825352 64.2647093,3.93149296 64.9118023,4.55684507 C65.5577326,5.18276056 65.880407,5.94332394 65.880407,6.84135211 C65.880407,7.73938028 65.5501744,8.50726761 64.8902907,9.14670423 C64.2292442,9.78557746 63.4228488,10.1050141 62.4693605,10.1050141 C62.0211047,10.1050141 61.5926163,10.0171268 61.1856395,9.83966197 C60.7780814,9.66332394 60.4199419,9.43177465 60.1106395,9.14670423 C59.8030814,8.86107042 59.558314,8.52811268 59.3751744,8.14670423 C59.1931977,7.76642254 59.1019186,7.35853521 59.1019186,6.92304225 C59.1019186,5.97149296 59.4309884,5.18276056 60.0914535,4.55684507 C60.7490116,3.93149296 61.571686,3.61825352 62.5542442,3.61825352" id="Fill-21" fill="#FEFEFE"></path>
    </g>
</svg>