<?xml version="1.0" encoding="UTF-8" standalone="no"?>
<svg width="76px" height="103px" viewBox="0 0 76 103" version="1.1" xmlns="http://www.w3.org/2000/svg" xmlns:xlink="http://www.w3.org/1999/xlink">
    <title>ICON // MAILBOX</title>
    <desc>Created with Sketch.</desc>
    <defs></defs>
    <g id="Symbols" stroke="none" stroke-width="1" fill="none" fill-rule="evenodd">
        <g id="ICON-//-MAILBOX" fill="#282828">
            <path d="M71.0781,54.25 L31.5151,54.25 L31.5151,34.5 C31.5151,28.82 29.9821,24.464 26.9941,21.5 L42.2661,21.5 L42.2661,35 C42.2661,36.104 43.1611,37 44.2661,37 L54.5161,37 C55.6201,37 56.5151,36.104 56.5151,35 L56.5151,21.5 L58.6401,21.5 C58.6861,21.5 58.7331,21.499 58.7791,21.495 C58.8341,21.492 64.2011,21.162 67.7991,24.519 C69.9751,26.549 71.0781,29.589 71.0781,33.555 L71.0781,54.25 Z M4.0101,32.982 C4.0061,32.932 3.7231,27.8 6.7951,24.493 C8.6411,22.507 11.4071,21.5 15.0151,21.5 L17.8261,21.5 C19.5521,21.68 21.8561,22.257 23.7681,23.923 C26.2551,26.09 27.5151,29.649 27.5151,34.5 L27.5151,54.25 L4.0151,54.25 L4.0151,33.129 C4.0151,33.08 4.0141,33.031 4.0101,32.982 L4.0101,32.982 Z M46.2661,4 L71.0161,4 L71.0161,10.25 L54.5161,10.25 C53.4111,10.25 52.5161,11.146 52.5161,12.25 L52.5161,33 L46.2661,33 L46.2661,4 Z M70.5281,21.595 C65.8971,17.272 59.4191,17.457 58.5831,17.5 L56.5151,17.5 L56.5151,14.25 L73.0151,14.25 C74.1201,14.25 75.0161,13.354 75.0161,12.25 L75.0161,2 C75.0161,0.896 74.1201,0 73.0151,0 L44.2661,0 C43.1611,0 42.2661,0.896 42.2661,2 L42.2661,17.5 L17.9581,17.5 C16.3511,17.356 15.1711,17.468 14.8381,17.507 C10.1591,17.543 6.4651,18.973 3.8651,21.771 C-0.2199,26.167 -0.0299,32.354 0.0151,33.19 L0.0151,56.25 C0.0151,57.354 0.9111,58.25 2.0151,58.25 L27.5151,58.25 L27.5151,100.25 C27.5151,101.354 28.4111,102.25 29.5151,102.25 C30.6201,102.25 31.5151,101.354 31.5151,100.25 L31.5151,58.25 L42.2661,58.25 L42.2661,100.25 C42.2661,101.354 43.1611,102.25 44.2661,102.25 C45.3701,102.25 46.2661,101.354 46.2661,100.25 L46.2661,58.25 L73.0781,58.25 C74.1821,58.25 75.0781,57.354 75.0781,56.25 L75.0781,33.555 C75.0781,28.436 73.5471,24.412 70.5281,21.595 L70.5281,21.595 Z" id="Fill-1"></path>
        </g>
    </g>
</svg>