<?xml version="1.0" standalone="no"?>
<!DOCTYPE svg PUBLIC "-//W3C//DTD SVG 20010904//EN"
 "http://www.w3.org/TR/2001/REC-SVG-20010904/DTD/svg10.dtd">
<svg version="1.0" xmlns="http://www.w3.org/2000/svg"
 width="16.000000pt" height="16.000000pt" viewBox="0 0 16.000000 16.000000"
 preserveAspectRatio="xMidYMid meet">
<metadata>
Created by potrace 1.11, written by Peter Selinger 2001-2013
</metadata>
<g transform="translate(0.000000,16.000000) scale(0.002336,-0.002336)"
fill="#000000" stroke="none">
<path d="M3219 6846 c-2 -2 -44 -7 -94 -11 -110 -8 -285 -37 -425 -71 -127
-30 -350 -99 -404 -125 -22 -10 -43 -19 -47 -19 -4 0 -38 -14 -76 -31 -511
-231 -892 -542 -1241 -1014 -44 -60 -182 -289 -182 -303 0 -5 -7 -15 -15 -22
-9 -7 -13 -15 -11 -17 3 -3 -8 -29 -24 -58 -79 -145 -186 -470 -229 -690 -19
-98 -24 -135 -41 -285 -7 -70 -5 -474 3 -530 2 -14 7 -52 12 -85 4 -33 9 -69
12 -80 2 -11 6 -38 9 -60 4 -22 19 -92 35 -155 70 -284 177 -545 318 -779 28
-46 51 -86 51 -87 0 -2 7 -12 15 -21 8 -10 40 -55 72 -99 138 -194 280 -346
579 -620 17 -16 76 -70 130 -121 55 -50 109 -100 121 -111 13 -10 66 -59 120
-108 53 -49 119 -109 147 -134 27 -25 57 -52 66 -60 9 -8 54 -49 100 -90 47
-41 105 -93 130 -116 46 -42 108 -97 244 -219 43 -38 84 -74 90 -80 6 -5 49
-44 96 -85 47 -41 90 -79 96 -85 6 -5 42 -37 79 -70 38 -33 73 -65 79 -70 6
-6 49 -44 96 -85 47 -41 87 -77 90 -80 3 -3 41 -36 85 -75 44 -38 86 -76 94
-83 14 -13 21 -9 82 48 9 8 29 26 45 39 25 21 226 197 309 270 17 15 68 60
115 101 47 41 90 79 96 85 6 5 39 35 74 65 35 30 71 62 79 70 9 8 52 47 96 85
44 39 85 75 91 80 6 6 44 39 84 75 41 36 81 72 90 80 9 8 54 49 100 90 93 83
157 139 174 155 6 6 58 53 116 105 58 52 110 99 116 105 6 5 57 53 115 105 57
52 133 122 168 155 83 76 359 352 386 385 11 14 43 54 71 90 315 401 514 863
588 1370 27 181 28 617 2 745 -2 12 -8 48 -12 80 -4 33 -8 62 -9 65 -1 3 -4
19 -8 35 -4 17 -9 42 -11 56 -7 42 -55 216 -83 299 -204 608 -611 1130 -1168
1499 -234 155 -506 282 -781 366 -65 20 -128 39 -139 41 -11 2 -29 6 -40 9
-60 14 -156 33 -200 40 -27 5 -52 9 -55 10 -3 0 -34 4 -70 9 -36 4 -78 9 -95
12 -36 6 -501 15 -506 10z m386 -1402 c260 -55 477 -243 584 -507 47 -117 59
-331 26 -462 -74 -296 -314 -532 -605 -596 -92 -20 -278 -17 -365 5 -185 48
-351 161 -458 312 -287 408 -146 963 300 1183 66 33 131 54 228 75 43 9 229 3
290 -10z m91 -1937 c12 -3 39 -8 59 -11 353 -56 721 -279 935 -566 l40 -54 0
-374 0 -374 -28 -26 c-15 -15 -43 -40 -62 -57 -32 -27 -179 -156 -206 -180
-53 -47 -214 -189 -454 -399 -69 -60 -143 -125 -165 -145 -21 -20 -60 -53 -85
-75 -58 -50 -169 -147 -238 -209 l-53 -48 -67 58 c-37 32 -80 69 -96 83 -16
14 -36 32 -45 41 -9 8 -50 44 -91 80 -41 35 -77 66 -80 69 -3 3 -59 53 -125
110 -66 58 -125 110 -131 116 -6 5 -35 30 -64 55 -29 24 -62 53 -74 65 -12 11
-95 85 -186 164 -91 79 -181 158 -200 176 -19 18 -57 52 -85 76 l-50 43 0 377
0 376 34 49 c19 26 83 96 142 155 234 231 545 384 859 423 30 4 57 8 59 10 5
6 433 -2 457 -8z"/>
</g>
</svg>
